# xmcd
#
# Track frame offsets:
#	150
#	13477
#	24182
#	37165
#	48485
#	59305
#	70132
#	81672
#	94100
#	105615
#	116862
#	130602
#	142555
#	154545
#	166905
#	179142
#	192415
#	203907
#	216957
#	227352
#	237582
#	251957
#	262412
#	274150
#	287192
#
# Disc length: 3971
#
# Revision: 2
# Processed by: cddbd v1.5.1PL0 Copyright (c) Steve Scherf et al.
# Submitted via: EasyCDDAExtractor 7.0.5.1
# Normalized: r1:DSETVAR1
#
DISCID=800f8119
DTITLE=Various Artist - The Country Music Jamboree - Disc 03
DYEAR=1999
DGENRE=Country and Western
TTITLE0=Hank Thompson - Wildwood Flower
TTITLE1=Hank Thompson - Pick Me Up On Your Way Down
TTITLE2=Jean Shepard - Under Your Spell Again
TTITLE3=Jean Shepard - I Can't Stop Loving You
TTITLE4=Ferlin Husky - Gone
TTITLE5=Ferlin Husky - A Fallen Star
TTITLE6=Sonny James - Young Love
TTITLE7=Sonny James - A Fool Such As I
TTITLE8=Wanda Jackson - No Wedding Bells For Joe
TTITLE9=Wanda Jackson - Just A Queen For A Day
TTITLE10=Slim Whitman - Lovestick Blues
TTITLE11=Slim Whitman - When My Blue Moon Turns To Gold Again
TTITLE12=The Louvin Brothers - Kentucky
TTITLE13=The Louvin Brothers - Alabama
TTITLE14=Tommy Collins - What' Cha Gonna Do Now
TTITLE15=Tommy Collins - I'm Guess I'm Crazy
TTITLE16=Jean Shepard and Ferlin Husky - Dear Jon Letter
TTITLE17=Faron Young - Your Cheetin' Heart
TTITLE18=Faron Young - I Can't Help It
TTITLE19=Rose Maddox - Move It On Over
TTITLE20=Rose Maddox - Philadelphia Lawyer
TTITLE21=Texas Bill Strength - Nord Wind
TTITLE22=Texas Bill Strength - The Yellow Rose Of Texas
TTITLE23=Hank Thompson - Have I Told You Latey That I Love You
TTITLE24=Hank Thompson - Under The Double Eagle
EXTD=
EXTT0=
EXTT1=
EXTT2=
EXTT3=
EXTT4=
EXTT5=
EXTT6=
EXTT7=
EXTT8=
EXTT9=
EXTT10=
EXTT11=
EXTT12=
EXTT13=
EXTT14=
EXTT15=
EXTT16=
EXTT17=
EXTT18=
EXTT19=
EXTT20=
EXTT21=
EXTT22=
EXTT23=
EXTT24=
PLAYORDER=
